<svg width="39" height="38" viewBox="0 0 39 38" fill="none" xmlns="http://www.w3.org/2000/svg">
<path fill-rule="evenodd" clip-rule="evenodd" d="M19.5 0.926829C9.25579 0.926829 0.951219 9.01846 0.951219 19C0.951219 28.9815 9.25579 37.0732 19.5 37.0732C29.7442 37.0732 38.0488 28.9815 38.0488 19C38.0488 9.01846 29.7442 0.926829 19.5 0.926829ZM0 19C0 8.50659 8.73045 0 19.5 0C30.2696 0 39 8.50659 39 19C39 29.4934 30.2696 38 19.5 38C8.73045 38 0 29.4934 0 19ZM15.4639 8.80305C16.052 7.18449 17.6364 6.02439 19.5 6.02439C21.3636 6.02439 22.948 7.18449 23.5361 8.80305C26.4999 10.247 28.5366 13.2328 28.5366 16.6829V20.8974L31.5549 24.081C32.3991 24.9715 31.7509 26.4146 30.5068 26.4146H8.49319C7.24909 26.4146 6.60092 24.9715 7.4451 24.081L10.4634 20.8974V16.6829C10.4634 13.2328 12.5001 10.247 15.4639 8.80305ZM19.5 6.95122C17.9932 6.95122 16.719 7.92695 16.3091 9.26635C16.2704 9.39261 16.1784 9.49688 16.0561 9.55307C13.3121 10.8137 11.4146 13.5329 11.4146 16.6829V21.0787C11.4146 21.1952 11.3696 21.3075 11.2884 21.3931L8.14383 24.7099C7.86243 25.0068 8.07849 25.4878 8.49319 25.4878H30.5068C30.9215 25.4878 31.1376 25.0067 30.8562 24.7099L27.7116 21.3931C27.6305 21.3075 27.5854 21.1952 27.5854 21.0787V16.6829C27.5854 13.5329 25.688 10.8137 22.9439 9.55307C22.8216 9.49688 22.7296 9.39262 22.6909 9.26635C22.281 7.92695 21.0068 6.95122 19.5 6.95122ZM15.2195 27.8049C15.2195 27.5489 15.4325 27.3415 15.6951 27.3415H23.3049C23.5676 27.3415 23.7805 27.5489 23.7805 27.8049C23.7805 30.1083 21.8641 31.9756 19.5 31.9756C17.136 31.9756 15.2195 30.1083 15.2195 27.8049ZM16.2045 28.2683C16.4352 29.8403 17.8228 31.0488 19.5 31.0488C21.1772 31.0488 22.5648 29.8403 22.7956 28.2683H16.2045Z" fill="#292D32"/>
</svg>
