<svg width="105" height="78" viewBox="0 0 105 78" fill="none" xmlns="http://www.w3.org/2000/svg">
<path fill-rule="evenodd" clip-rule="evenodd" d="M0 6.72414C0 3.0105 2.86647 0 6.40244 0H98.5976C102.134 0 105 3.0105 105 6.72414V20.1724C105 20.9151 104.427 21.5172 103.72 21.5172H1.28049C0.573294 21.5172 0 20.9151 0 20.1724V6.72414ZM6.40244 2.68966C4.28086 2.68966 2.56098 4.49595 2.56098 6.72414V18.8276H102.439V6.72414C102.439 4.49595 100.719 2.68966 98.5976 2.68966H6.40244ZM0 30.931C0 30.1883 0.573294 29.5862 1.28049 29.5862H103.72C104.427 29.5862 105 30.1883 105 30.931V71.2759C105 74.9895 102.134 78 98.5976 78H6.40244C2.86647 78 0 74.9895 0 71.2759V30.931ZM2.56098 32.2759V71.2759C2.56098 73.504 4.28086 75.3103 6.40244 75.3103H98.5976C100.719 75.3103 102.439 73.504 102.439 71.2759V32.2759H2.56098ZM7.68293 53.7931C7.68293 52.3076 8.82951 51.1034 10.2439 51.1034H28.1707C29.5851 51.1034 30.7317 52.3076 30.7317 53.7931V61.8621C30.7317 63.3475 29.5851 64.5517 28.1707 64.5517H10.2439C8.82951 64.5517 7.68293 63.3475 7.68293 61.8621V53.7931ZM28.1707 53.7931H10.2439V61.8621H28.1707V53.7931Z" fill="#2E3A59"/>
</svg>
